<?xml version="1.0" encoding="utf-8"?>
<!-- Generator: Adobe Illustrator 21.0.0, SVG Export Plug-In . SVG Version: 6.00 Build 0)  -->
<svg version="1.1" id="Layer_1" xmlns="http://www.w3.org/2000/svg" xmlns:xlink="http://www.w3.org/1999/xlink" x="0px" y="0px"
	 viewBox="0 0 2048 2048" style="enable-background:new 0 0 2048 2048;" xml:space="preserve">
<style type="text/css">
	.st0{fill:#1572B6;}
	.st1{fill:#35A8DB;}
	.st2{fill:#E9E9E8;}
	.st3{fill:#FFFFFE;}
	.st4{fill:none;}
</style>
<g id="Layer_x0020_1">
	<g id="_337846024">
		<polygon id="_337847128" class="st0" points="1768.4,1830.6 1929.7,23.7 1931.8,0 1908.1,0 137.5,0 113.7,0 115.8,23.7 
			277,1830.9 278.3,1846 292.8,1850 1015.9,2050.7 1027.5,2050.7 1752.6,1849.7 1767.1,1845.7 		"/>
		<polygon id="_337847104" class="st1" points="1791.7,128.2 1022.8,128.2 1022.8,1919 1647.3,1745.9 		"/>
		<g>
			<polygon id="_337846984" class="st2" points="1021.9,609.3 479.6,835.2 497.6,1058.8 1021.9,834.6 1579.7,596.1 1602.8,367.4 			
				"/>
			<polygon id="_337846144" class="st2" points="1021.9,367.4 1025.9,367.4 1030.5,367.4 1035.1,367.4 1039.7,367.4 1044.3,367.4 
				1048.8,367.4 1053.4,367.4 1058,367.4 1062.6,367.4 1067.2,367.4 1071.7,367.4 1076.3,367.4 1080.9,367.4 1085.5,367.4 
				1090,367.4 1094.6,367.4 1099.2,367.4 1103.8,367.4 1108.4,367.4 1112.9,367.4 1117.5,367.4 1122.1,367.4 1126.7,367.4 
				1131.2,367.4 1135.8,367.4 1140.4,367.4 1145,367.4 1149.6,367.4 1154.1,367.4 1158.7,367.4 1163.3,367.4 1167.9,367.4 
				1172.5,367.4 1177,367.4 1181.6,367.4 1186.2,367.4 1190.8,367.4 1195.3,367.4 1199.9,367.4 1204.5,367.4 1209.1,367.4 
				1213.7,367.4 1218.2,367.4 1222.8,367.4 1227.4,367.4 1232,367.4 1236.6,367.4 1241.1,367.4 1245.7,367.4 1250.3,367.4 
				1254.9,367.4 1259.4,367.4 1264,367.4 1268.6,367.4 1273.2,367.4 1277.8,367.4 1282.3,367.4 1286.9,367.4 1291.5,367.4 
				1296.1,367.4 1300.6,367.4 1305.2,367.4 1309.8,367.4 1314.4,367.4 1319,367.4 1323.5,367.4 1328.1,367.4 1332.7,367.4 
				1337.3,367.4 1341.9,367.4 1346.4,367.4 1351,367.4 1355.6,367.4 1360.2,367.4 1364.7,367.4 1369.3,367.4 1373.9,367.4 
				1378.5,367.4 1383.1,367.4 1387.6,367.4 1392.2,367.4 1396.8,367.4 1401.4,367.4 1406,367.4 1410.5,367.4 1415.1,367.4 
				1419.7,367.4 1424.3,367.4 1428.8,367.4 1433.4,367.4 1438,367.4 1442.6,367.4 1447.2,367.4 1451.7,367.4 1456.3,367.4 
				1460.9,367.4 1465.5,367.4 1470,367.4 1474.6,367.4 1479.2,367.4 1483.8,367.4 1488.4,367.4 1492.9,367.4 1497.5,367.4 
				1502.1,367.4 1506.7,367.4 1511.3,367.4 1515.8,367.4 1520.4,367.4 1525,367.4 1529.6,367.4 1534.1,367.4 1538.7,367.4 
				1543.3,367.4 1547.9,367.4 1552.5,367.4 1557,367.4 1561.6,367.4 1566.2,367.4 1570.8,367.4 1575.4,367.4 1579.9,367.4 
				1584.5,367.4 1589.1,367.4 1593.7,367.4 1598.2,367.4 1602.8,367.4 1598.2,412.7 1593.7,457.9 1589.1,503.2 1584.5,548.5 
				1579.9,593.8 1579.7,596.1 1579.7,596.1 1575.4,596.1 1570.8,596.1 1566.2,596.1 1561.6,596.1 1557,596.1 1552.5,596.1 
				1547.9,596.1 1543.3,596.1 1538.7,596.1 1534.1,596.1 1529.6,596.1 1525,596.1 1520.4,596.1 1515.8,596.1 1511.3,596.1 
				1506.7,596.1 1502.1,596.1 1497.5,596.1 1492.9,596.1 1488.4,596.1 1483.8,596.1 1479.2,596.1 1474.6,596.1 1470,596.1 
				1465.5,596.1 1460.9,596.1 1456.3,596.1 1451.7,596.1 1447.2,596.1 1442.6,596.1 1438,596.1 1433.4,596.1 1428.8,596.1 
				1424.3,596.1 1419.7,596.1 1415.1,596.1 1410.5,596.1 1406,596.1 1401.4,596.1 1396.8,596.1 1392.2,596.1 1387.6,596.1 
				1383.1,596.1 1378.5,596.1 1373.9,596.1 1369.3,596.1 1364.7,596.1 1360.2,596.1 1355.6,596.1 1351,596.1 1346.4,596.1 
				1341.9,596.1 1337.3,596.1 1332.7,596.1 1328.1,596.1 1323.5,596.1 1319,596.1 1314.4,596.1 1309.8,596.1 1305.2,596.1 
				1300.6,596.1 1296.1,596.1 1291.5,596.1 1286.9,596.1 1282.3,596.1 1277.8,596.1 1273.2,596.1 1268.6,596.1 1264,596.1 
				1259.4,596.1 1254.9,596.1 1250.3,596.1 1245.7,596.1 1241.1,596.1 1236.6,596.1 1232,596.1 1227.4,596.1 1222.8,596.1 
				1218.2,596.1 1213.7,596.1 1209.1,596.1 1204.5,596.1 1199.9,596.1 1195.3,596.1 1190.8,596.1 1186.2,596.1 1181.6,596.1 
				1177,596.1 1172.5,596.1 1167.9,596.1 1163.3,596.1 1158.7,596.1 1154.1,596.1 1149.6,596.1 1145,596.1 1140.4,596.1 
				1135.8,596.1 1131.2,596.1 1126.7,596.1 1122.1,596.1 1117.5,596.1 1112.9,596.1 1108.4,596.1 1103.8,596.1 1099.2,596.1 
				1094.6,596.1 1090,596.1 1085.5,596.1 1080.9,596.1 1076.3,596.1 1071.7,596.1 1067.2,596.1 1062.6,596.1 1058,596.1 
				1053.5,596.1 1053.4,596.1 1048.8,596.1 1044.3,596.1 1039.7,596.1 1035.1,596.1 1030.5,596.1 1025.9,596.1 1022.6,596.1 
				1021.9,596.1 1021.4,596.1 1016.8,596.1 1012.2,596.1 1007.6,596.1 1003.1,596.1 998.5,596.1 993.9,596.1 989.3,596.1 
				984.7,596.1 980.2,596.1 975.6,596.1 971,596.1 966.4,596.1 961.8,596.1 957.3,596.1 952.7,596.1 948.1,596.1 943.5,596.1 
				939,596.1 934.4,596.1 929.8,596.1 925.2,596.1 920.6,596.1 916.1,596.1 911.5,596.1 906.9,596.1 902.3,596.1 897.8,596.1 
				893.2,596.1 888.6,596.1 884,596.1 879.4,596.1 874.9,596.1 870.3,596.1 865.7,596.1 861.1,596.1 856.5,596.1 852,596.1 
				847.4,596.1 842.8,596.1 838.2,596.1 833.7,596.1 829.1,596.1 824.5,596.1 819.9,596.1 815.3,596.1 810.8,596.1 806.2,596.1 
				801.6,596.1 797,596.1 792.4,596.1 787.9,596.1 783.3,596.1 778.7,596.1 774.1,596.1 769.6,596.1 765,596.1 760.4,596.1 
				755.8,596.1 751.2,596.1 746.7,596.1 742.1,596.1 737.5,596.1 732.9,596.1 728.3,596.1 723.8,596.1 719.2,596.1 714.6,596.1 
				710,596.1 705.5,596.1 700.9,596.1 696.3,596.1 691.7,596.1 687.1,596.1 682.6,596.1 678,596.1 673.4,596.1 668.8,596.1 
				664.3,596.1 659.7,596.1 655.1,596.1 650.5,596.1 645.9,596.1 641.4,596.1 636.8,596.1 632.2,596.1 627.6,596.1 623,596.1 
				618.5,596.1 613.9,596.1 609.3,596.1 604.7,596.1 600.2,596.1 595.6,596.1 591,596.1 586.4,596.1 581.8,596.1 577.3,596.1 
				572.7,596.1 568.1,596.1 563.5,596.1 558.9,596.1 554.4,596.1 549.8,596.1 545.2,596.1 540.6,596.1 536.1,596.1 531.5,596.1 
				526.9,596.1 522.3,596.1 517.7,596.1 513.2,596.1 508.6,596.1 504,596.1 499.4,596.1 494.8,596.1 490.3,596.1 485.7,596.1 
				481.1,596.1 476.5,596.1 472,596.1 467.4,596.1 462.8,596.1 459,596.1 458.2,589.7 453.6,552.6 449.1,515.6 444.5,478.5 
				439.9,441.5 435.3,404.4 430.8,367.4 435.3,367.4 439.9,367.4 444.5,367.4 449.1,367.4 453.6,367.4 458.2,367.4 462.8,367.4 
				467.4,367.4 472,367.4 476.5,367.4 481.1,367.4 485.7,367.4 490.3,367.4 494.8,367.4 499.4,367.4 504,367.4 508.6,367.4 
				513.2,367.4 517.7,367.4 522.3,367.4 526.9,367.4 531.5,367.4 536.1,367.4 540.6,367.4 545.2,367.4 549.8,367.4 554.4,367.4 
				558.9,367.4 563.5,367.4 568.1,367.4 572.7,367.4 577.3,367.4 581.8,367.4 586.4,367.4 591,367.4 595.6,367.4 600.2,367.4 
				604.7,367.4 609.3,367.4 613.9,367.4 618.5,367.4 623,367.4 627.6,367.4 632.2,367.4 636.8,367.4 641.4,367.4 645.9,367.4 
				650.5,367.4 655.1,367.4 659.7,367.4 664.3,367.4 668.8,367.4 673.4,367.4 678,367.4 682.6,367.4 687.1,367.4 691.7,367.4 
				696.3,367.4 700.9,367.4 705.5,367.4 710,367.4 714.6,367.4 719.2,367.4 723.8,367.4 728.3,367.4 732.9,367.4 737.5,367.4 
				742.1,367.4 746.7,367.4 751.2,367.4 755.8,367.4 760.4,367.4 765,367.4 769.6,367.4 774.1,367.4 778.7,367.4 783.3,367.4 
				787.9,367.4 792.4,367.4 797,367.4 801.6,367.4 806.2,367.4 810.8,367.4 815.3,367.4 819.9,367.4 824.5,367.4 829.1,367.4 
				833.7,367.4 838.2,367.4 842.8,367.4 847.4,367.4 852,367.4 856.5,367.4 861.1,367.4 865.7,367.4 870.3,367.4 874.9,367.4 
				879.4,367.4 884,367.4 888.6,367.4 893.2,367.4 897.8,367.4 902.3,367.4 906.9,367.4 911.5,367.4 916.1,367.4 920.6,367.4 
				925.2,367.4 929.8,367.4 934.4,367.4 939,367.4 943.5,367.4 948.1,367.4 952.7,367.4 957.3,367.4 961.8,367.4 966.4,367.4 
				971,367.4 975.6,367.4 980.2,367.4 984.7,367.4 989.3,367.4 993.9,367.4 998.5,367.4 1003.1,367.4 1007.6,367.4 1012.2,367.4 
				1016.8,367.4 1021.4,367.4 			"/>
			<polygon id="_337846384" class="st2" points="480.4,835.2 1560,835.2 1540.3,1061.4 498.4,1058.8 			"/>
			<polygon id="_337846192" class="st2" points="514.2,1184.8 750.3,1184.9 765.7,1369.8 1021.9,1433.3 1285,1359.5 1302.8,1057.1 
				1541,1053.4 1498.3,1544.6 1022.8,1683.4 543.8,1542 			"/>
		</g>
		<g>
			<polygon id="_337846792" class="st3" points="1022.8,834.2 1579.7,596.1 1602.8,367.4 1022.8,608.9 			"/>
			<polygon id="_337846480" class="st3" points="1022.8,367.4 1025.9,367.4 1030.5,367.4 1035.1,367.4 1039.7,367.4 1044.3,367.4 
				1048.8,367.4 1053.4,367.4 1058,367.4 1062.6,367.4 1067.2,367.4 1071.7,367.4 1076.3,367.4 1080.9,367.4 1085.5,367.4 
				1090,367.4 1094.6,367.4 1099.2,367.4 1103.8,367.4 1108.4,367.4 1112.9,367.4 1117.5,367.4 1122.1,367.4 1126.7,367.4 
				1131.2,367.4 1135.8,367.4 1140.4,367.4 1145,367.4 1149.6,367.4 1154.1,367.4 1158.7,367.4 1163.3,367.4 1167.9,367.4 
				1172.5,367.4 1177,367.4 1181.6,367.4 1186.2,367.4 1190.8,367.4 1195.3,367.4 1199.9,367.4 1204.5,367.4 1209.1,367.4 
				1213.7,367.4 1218.2,367.4 1222.8,367.4 1227.4,367.4 1232,367.4 1236.6,367.4 1241.1,367.4 1245.7,367.4 1250.3,367.4 
				1254.9,367.4 1259.4,367.4 1264,367.4 1268.6,367.4 1273.2,367.4 1277.8,367.4 1282.3,367.4 1286.9,367.4 1291.5,367.4 
				1296.1,367.4 1300.6,367.4 1305.2,367.4 1309.8,367.4 1314.4,367.4 1319,367.4 1323.5,367.4 1328.1,367.4 1332.7,367.4 
				1337.3,367.4 1341.9,367.4 1346.4,367.4 1351,367.4 1355.6,367.4 1360.2,367.4 1364.7,367.4 1369.3,367.4 1373.9,367.4 
				1378.5,367.4 1383.1,367.4 1387.6,367.4 1392.2,367.4 1396.8,367.4 1401.4,367.4 1406,367.4 1410.5,367.4 1415.1,367.4 
				1419.7,367.4 1424.3,367.4 1428.8,367.4 1433.4,367.4 1438,367.4 1442.6,367.4 1447.2,367.4 1451.7,367.4 1456.3,367.4 
				1460.9,367.4 1465.5,367.4 1470,367.4 1474.6,367.4 1479.2,367.4 1483.8,367.4 1488.4,367.4 1492.9,367.4 1497.5,367.4 
				1502.1,367.4 1506.7,367.4 1511.3,367.4 1515.8,367.4 1520.4,367.4 1525,367.4 1529.6,367.4 1534.1,367.4 1538.7,367.4 
				1543.3,367.4 1547.9,367.4 1552.5,367.4 1557,367.4 1561.6,367.4 1566.2,367.4 1570.8,367.4 1575.4,367.4 1579.9,367.4 
				1584.5,367.4 1589.1,367.4 1593.7,367.4 1598.2,367.4 1602.8,367.4 1598.2,412.7 1593.7,457.9 1589.1,503.2 1584.5,548.5 
				1579.9,593.8 1579.7,596.1 1579.7,596.1 1575.4,596.1 1570.8,596.1 1566.2,596.1 1561.6,596.1 1557,596.1 1552.5,596.1 
				1547.9,596.1 1543.3,596.1 1538.7,596.1 1534.1,596.1 1529.6,596.1 1525,596.1 1520.4,596.1 1515.8,596.1 1511.3,596.1 
				1506.7,596.1 1502.1,596.1 1497.5,596.1 1492.9,596.1 1488.4,596.1 1483.8,596.1 1479.2,596.1 1474.6,596.1 1470,596.1 
				1465.5,596.1 1460.9,596.1 1456.3,596.1 1451.7,596.1 1447.2,596.1 1442.6,596.1 1438,596.1 1433.4,596.1 1428.8,596.1 
				1424.3,596.1 1419.7,596.1 1415.1,596.1 1410.5,596.1 1406,596.1 1401.4,596.1 1396.8,596.1 1392.2,596.1 1387.6,596.1 
				1383.1,596.1 1378.5,596.1 1373.9,596.1 1369.3,596.1 1364.7,596.1 1360.2,596.1 1355.6,596.1 1351,596.1 1346.4,596.1 
				1341.9,596.1 1337.3,596.1 1332.7,596.1 1328.1,596.1 1323.5,596.1 1319,596.1 1314.4,596.1 1309.8,596.1 1305.2,596.1 
				1300.6,596.1 1296.1,596.1 1291.5,596.1 1286.9,596.1 1282.3,596.1 1277.8,596.1 1273.2,596.1 1268.6,596.1 1264,596.1 
				1259.4,596.1 1254.9,596.1 1250.3,596.1 1245.7,596.1 1241.1,596.1 1236.6,596.1 1232,596.1 1227.4,596.1 1222.8,596.1 
				1218.2,596.1 1213.7,596.1 1209.1,596.1 1204.5,596.1 1199.9,596.1 1195.3,596.1 1190.8,596.1 1186.2,596.1 1181.6,596.1 
				1177,596.1 1172.5,596.1 1167.9,596.1 1163.3,596.1 1158.7,596.1 1154.1,596.1 1149.6,596.1 1145,596.1 1140.4,596.1 
				1135.8,596.1 1131.2,596.1 1126.7,596.1 1122.1,596.1 1117.5,596.1 1112.9,596.1 1108.4,596.1 1103.8,596.1 1099.2,596.1 
				1094.6,596.1 1090,596.1 1085.5,596.1 1080.9,596.1 1076.3,596.1 1071.7,596.1 1067.2,596.1 1062.6,596.1 1058,596.1 
				1053.5,596.1 1053.4,596.1 1048.8,596.1 1044.3,596.1 1039.7,596.1 1035.1,596.1 1030.5,596.1 1025.9,596.1 1022.8,596.1 			"/>
			<polygon id="_337845784" class="st3" points="1022.8,835.2 1560,835.2 1540.3,1061.4 1022.8,1060.1 			"/>
			<polygon id="_337845328" class="st3" points="1022.8,1433.1 1285,1359.5 1302.8,1057.1 1541,1053.4 1498.3,1544.6 1022.8,1683.4 
				1022.8,1683.4 			"/>
		</g>
	</g>
</g>
<rect class="st4" width="2048" height="2048"/>
</svg>
